<?xml version="1.0" standalone="no"?>
<!DOCTYPE svg PUBLIC "-//W3C//DTD SVG 20010904//EN"
 "http://www.w3.org/TR/2001/REC-SVG-20010904/DTD/svg10.dtd">
<svg version="1.0" xmlns="http://www.w3.org/2000/svg"
 width="512.000000pt" height="512.000000pt" viewBox="0 0 512.000000 512.000000"
 preserveAspectRatio="xMidYMid meet">

<g transform="translate(0.000000,512.000000) scale(0.100000,-0.100000)"
fill="currentColor" stroke="currentColor">
<path d="M722 3994 c-13 -9 -27 -27 -32 -40 l-10 -24 -297 0 c-264 0 -302 -2
-333 -18 -66 -33 -66 -111 0 -144 31 -16 69 -18 333 -18 l297 0 0 -84 0 -84
-117 -4 c-137 -4 -166 -17 -202 -91 -19 -40 -21 -61 -21 -243 0 -220 9 -258
65 -302 50 -40 87 -43 386 -40 l286 3 42 28 42 28 95 -37 c62 -24 93 -41 90
-49 -8 -21 -464 -1477 -481 -1537 -19 -68 -10 -119 32 -169 41 -49 77 -59 210
-59 134 0 182 16 220 72 11 18 139 359 284 758 144 399 265 729 269 733 4 4
68 -15 142 -43 l134 -51 47 -95 47 -94 -73 0 c-39 0 -90 -5 -112 -11 -60 -17
-121 -64 -152 -117 l-28 -47 -3 -407 c-3 -399 -2 -408 19 -458 12 -27 39 -66
61 -86 79 -71 59 -69 598 -69 539 0 519 -2 598 69 22 20 49 59 61 86 21 50 22
59 19 458 -3 451 -1 434 -72 505 -53 53 -99 70 -203 75 l-92 4 47 93 46 94
134 51 c74 28 137 49 139 46 3 -2 125 -335 272 -738 147 -404 276 -746 285
-760 10 -15 37 -37 62 -48 39 -19 57 -21 172 -18 123 3 130 4 165 31 46 35 70
80 71 132 0 26 -87 317 -243 814 -133 426 -245 780 -247 786 -3 8 29 26 90 49
l95 37 42 -28 42 -28 286 -3 c299 -3 336 0 386 40 56 44 65 82 65 302 0 182
-2 203 -21 243 -36 74 -65 87 -201 91 l-118 4 0 84 0 84 298 0 c263 0 301 2
332 18 66 33 66 111 0 144 -31 16 -69 18 -333 18 l-297 0 -10 24 c-12 32 -48
56 -83 56 -30 0 -77 -39 -77 -65 0 -13 -35 -15 -292 -15 -334 0 -362 -4 -384
-56 -12 -29 -12 -39 0 -68 22 -52 50 -56 384 -56 l293 0 -3 -82 -3 -83 -115
-5 c-120 -5 -139 -11 -179 -54 l-24 -26 -376 0 -376 0 -35 67 c-23 45 -64 97
-120 154 -69 70 -101 94 -170 128 -113 54 -194 74 -310 74 -116 0 -197 -20
-310 -74 -108 -53 -237 -177 -290 -281 l-35 -68 -376 0 -376 0 -24 26 c-40 43
-59 49 -179 54 l-115 5 -3 83 -3 82 293 0 c334 0 362 4 384 56 12 29 12 39 0
68 -22 52 -50 56 -383 56 -258 0 -293 2 -293 15 0 9 -11 27 -25 40 -28 29 -70
32 -103 9z m1990 -264 c152 -47 275 -166 333 -322 10 -26 24 -53 33 -60 11
-10 117 -14 431 -18 l416 -5 3 -96 3 -97 -93 -35 c-51 -20 -286 -111 -523
-202 l-430 -165 -324 0 -324 0 -524 202 -524 201 3 96 3 96 417 5 c353 4 420
7 432 20 8 8 26 43 39 77 60 147 175 256 325 304 80 25 220 25 304 -1z m-1692
-490 l0 -170 -255 0 -255 0 0 170 0 170 255 0 255 0 0 -170z m3590 0 l0 -170
-255 0 -255 0 0 170 0 170 255 0 255 0 0 -170z m-2989 -456 c52 -20 95 -37 97
-39 2 -2 -487 -1354 -523 -1447 -6 -15 -20 -18 -86 -18 -45 0 -79 4 -79 10 0
11 469 1511 477 1523 7 11 15 9 114 -29z m2231 -724 c130 -415 237 -761 238
-767 0 -9 -22 -13 -79 -13 -66 0 -80 3 -86 18 -30 76 -525 1445 -523 1447 13
10 186 73 198 72 10 -2 84 -223 252 -757z m-1092 495 c0 -3 -18 -41 -40 -85
l-40 -80 -120 0 -120 0 -40 80 c-22 44 -40 82 -40 85 0 3 90 5 200 5 110 0
200 -2 200 -5z m263 -347 c46 -24 46 -24 47 -414 0 -361 -1 -372 -21 -398
l-20 -26 -469 0 -469 0 -20 26 c-20 26 -21 37 -21 398 1 388 1 389 45 414 29
16 897 17 928 0z"/>
<path d="M2500 2041 c-122 -40 -192 -129 -193 -245 0 -74 21 -127 71 -180 51
-53 104 -76 178 -76 74 0 120 18 176 68 128 116 98 338 -57 411 -50 23 -137
35 -175 22z m99 -176 c32 -16 41 -33 41 -78 0 -69 -91 -105 -137 -54 -38 41
-31 107 15 131 34 19 46 19 81 1z"/>
</g>
</svg>
